<?xml version="1.0" encoding="iso-8859-1"?>
<!-- Generator: Adobe Illustrator 19.0.0, SVG Export Plug-In . SVG Version: 6.00 Build 0)  -->
<svg xmlns="http://www.w3.org/2000/svg" xmlns:xlink="http://www.w3.org/1999/xlink" version="1.1" id="Layer_1" x="0px" y="0px" viewBox="0 0 512 512" style="enable-background:new 0 0 512 512;" xml:space="preserve">
<path style="fill:#FF8A00;" d="M501.554,250.06l-52.272-29.87l55.335-55.336c4.242-4.242,1.357-11.503-4.64-11.676l-83.655-2.408  l17.511-64.206c1.393-5.107-3.293-9.792-8.399-8.399l-58.083,15.841V15.75c0-6.001-7.174-9.093-11.537-4.975l-60.856,57.451  L261.94,10.445c-2.626-4.596-9.253-4.596-11.88,0l-29.87,52.272L164.854,7.381c-4.242-4.242-11.503-1.357-11.676,4.64l-2.408,83.655  l-64.204-17.51c-5.107-1.393-9.792,3.293-8.399,8.399l15.841,58.083H15.751c-6.001,0-9.093,7.174-4.975,11.537l57.451,60.856  L10.445,250.06c-4.596,2.626-4.596,9.253,0,11.88l52.272,29.87L7.381,347.144c-4.242,4.242-1.357,11.503,4.64,11.676l83.655,2.408  l-17.511,64.206c-1.393,5.107,3.293,9.792,8.399,8.4l58.083-15.841v78.257c0,6.001,7.174,9.093,11.537,4.975l60.856-57.451  l33.018,57.782c2.626,4.596,9.253,4.596,11.88,0l29.87-52.272l55.336,55.335c4.242,4.242,11.503,1.357,11.676-4.64l2.408-83.655  l64.206,17.511c5.107,1.393,9.792-3.293,8.399-8.399l-15.841-58.083h78.257c6.001,0,9.093-7.174,4.975-11.537l-57.451-60.856  l57.782-33.018C506.15,259.312,506.15,252.686,501.554,250.06z"/>
<path style="fill:#FFD94C;" d="M256,444.908c-104.164,0-188.908-84.744-188.908-188.908S151.835,67.091,256,67.091  S444.908,151.835,444.908,256S360.164,444.908,256,444.908z"/>
<path style="fill:#F7CA3E;" d="M320.262,419.425c-104.164,0-188.908-84.744-188.908-188.908c0-67.293,35.375-126.47,88.498-159.94  C132.92,87.491,67.091,164.196,67.091,256c0,104.164,84.744,188.908,188.908,188.908c36.872,0,71.303-10.629,100.411-28.968  C344.705,418.218,332.622,419.425,320.262,419.425z"/>
<path style="fill:#FFE71A;" d="M256,380.646c-68.73,0-124.646-55.916-124.646-124.646S187.269,131.353,256,131.353  S380.646,187.269,380.646,256S324.729,380.646,256,380.646z"/>
<path d="M510.96,256c0-5.946-3.082-11.259-8.245-14.209l-40.769-23.296l45.257-45.257c4.625-4.625,6.052-11.539,3.636-17.617  c-2.415-6.077-8.2-10.126-14.737-10.314l-69.704-2.005l14.103-51.71c1.564-5.737-0.012-11.672-4.217-15.877  c-4.204-4.205-10.138-5.779-15.878-4.217l-45.3,12.355V19.85c0-6.539-3.88-12.438-9.885-15.027  c-6.005-2.589-12.959-1.362-17.714,3.128l-50.706,47.871L270.208,9.283C267.258,4.12,261.946,1.038,256,1.038  c-5.946,0-11.259,3.082-14.209,8.245l-23.296,40.769L173.238,4.796c-4.624-4.625-11.541-6.052-17.617-3.636  c-6.077,2.415-10.126,8.2-10.314,14.737l-2.005,69.704l-51.71-14.103c-5.736-1.562-11.672,0.012-15.877,4.217  c-4.205,4.205-5.781,10.14-4.217,15.878l12.355,45.3H19.85c-6.539,0-12.438,3.88-15.027,9.885s-1.362,12.959,3.128,17.714  l47.871,50.706L9.283,241.791C4.12,244.741,1.038,250.053,1.038,256c0,5.946,3.082,11.259,8.245,14.209l40.769,23.296L4.796,338.761  c-4.625,4.625-6.052,11.539-3.636,17.617s8.2,10.126,14.737,10.314l69.704,2.005l-14.103,51.71  c-1.564,5.737,0.012,11.672,4.217,15.877c3.136,3.136,7.233,4.81,11.493,4.81c1.454,0,2.925-0.195,4.385-0.593l45.3-12.355v64.003  c0,6.539,3.88,12.438,9.885,15.027c2.09,0.901,4.294,1.34,6.482,1.34c4.097,0,8.132-1.541,11.233-4.467l50.706-47.871l26.592,46.537  c2.951,5.163,8.262,8.245,14.209,8.245c5.946,0,11.259-3.082,14.209-8.245l23.296-40.769l45.257,45.257  c3.13,3.131,7.31,4.796,11.569,4.796c2.032,0,4.084-0.38,6.047-1.16c6.077-2.415,10.126-8.2,10.314-14.737l2.005-69.704  l51.71,14.103c1.459,0.398,2.932,0.593,4.384,0.593c4.26,0,8.357-1.674,11.493-4.81c4.205-4.205,5.781-10.14,4.217-15.878  l-12.355-45.3h64.003c6.539,0,12.438-3.88,15.027-9.885s1.362-12.959-3.128-17.714L456.178,296.8l46.537-26.592  C507.878,267.258,510.96,261.946,510.96,256z M495.032,161.904l-47.871,47.871c-4.268-17.647-10.92-34.37-19.598-49.813  L495.032,161.904z M424.351,87.65l-13.047,47.839c-10.105-12.992-21.799-24.687-34.791-34.791L424.351,87.65z M358.487,20.442  v67.772c-15.122-9.27-31.584-16.557-49.025-21.491L358.487,20.442z M256,17.916l24.541,42.948  c-8.042-1.006-16.232-1.529-24.541-1.529c-8.31,0-16.5,0.523-24.543,1.529L256,17.916z M161.905,16.966l47.871,47.871  c-17.647,4.268-34.37,10.92-49.813,19.598L161.905,16.966z M135.487,100.696c-12.992,10.105-24.687,21.799-34.791,34.791  L87.649,87.649L135.487,100.696z M20.442,153.513h67.772c-9.27,15.122-16.557,31.584-21.491,49.025L20.442,153.513z M17.916,256  l42.948-24.541C59.858,239.5,59.335,247.69,59.335,256s0.523,16.5,1.529,24.543L17.916,256z M16.966,350.095l47.871-47.871  c4.268,17.647,10.92,34.37,19.598,49.813L16.966,350.095z M87.649,424.349l13.047-47.839c10.105,12.992,21.799,24.687,34.791,34.791  L87.649,424.349z M153.513,491.558v-67.772c15.122,9.27,31.584,16.557,49.025,21.491L153.513,491.558z M256,494.083l-24.541-42.948  c8.042,1.006,16.232,1.529,24.541,1.529c8.31,0,16.5-0.523,24.543-1.529L256,494.083z M350.095,495.033l-47.871-47.871  c17.647-4.268,34.37-10.92,49.813-19.598L350.095,495.033z M256,436.044c-99.277,0-180.044-80.767-180.044-180.044  S156.723,75.955,256,75.955S436.044,156.722,436.044,256S355.277,436.044,256,436.044z M376.511,411.303  c12.992-10.105,24.687-21.799,34.791-34.791l13.047,47.839L376.511,411.303z M491.558,358.486h-67.772  c9.27-15.122,16.557-31.584,21.491-49.025L491.558,358.486z M451.135,280.541c1.006-8.042,1.529-16.232,1.529-24.541  s-0.523-16.5-1.529-24.543L494.083,256L451.135,280.541z"/>
<path d="M348.239,160.241c-0.092,0.092-0.183,0.184-0.275,0.277c-3.056,3.071-3.157,8.002-0.225,11.192  c21.039,22.879,33.656,53.618,32.871,87.251c-1.56,66.909-56.527,121.067-123.452,121.679  c-70.637,0.646-128.05-57.779-125.739-128.778c2.133-65.531,55.463-118.612,121.001-120.459c23.95-0.675,46.45,5.449,65.716,16.575  c3.22,1.859,7.274,1.384,9.895-1.253c0.094-0.094,0.187-0.188,0.281-0.283c3.757-3.779,2.908-10.084-1.703-12.756  c-22.249-12.896-48.318-19.899-76.061-18.85c-73.721,2.789-133.338,62.737-135.739,136.471  c-2.657,81.592,64.283,148.534,145.875,145.88c74.46-2.421,134.704-63.172,136.537-137.648  c0.941-38.204-13.378-73.122-37.276-99.096C356.825,157.053,351.49,156.974,348.239,160.241z"/>
<g>
</g>
<g>
</g>
<g>
</g>
<g>
</g>
<g>
</g>
<g>
</g>
<g>
</g>
<g>
</g>
<g>
</g>
<g>
</g>
<g>
</g>
<g>
</g>
<g>
</g>
<g>
</g>
<g>
</g>
</svg>
